<svg xmlns="http://www.w3.org/2000/svg" viewBox="0 0 800 500">
  <!-- Sky gradient -->
  <defs>
    <linearGradient id="skyGradient" x1="0%" y1="0%" x2="0%" y2="100%">
      <stop offset="0%" style="stop-color:#2c3e50;stop-opacity:1" />
      <stop offset="100%" style="stop-color:#3498db;stop-opacity:1" />
    </linearGradient>
  </defs>
  
  <!-- Background sky -->
  <rect width="800" height="500" fill="url(#skyGradient)" />
  
  <!-- Stars -->
  <g>
    <circle cx="100" cy="50" r="1.5" fill="white" opacity="0.8" />
    <circle cx="200" cy="80" r="1" fill="white" opacity="0.6" />
    <circle cx="300" cy="40" r="1.2" fill="white" opacity="0.7" />
    <circle cx="400" cy="70" r="1" fill="white" opacity="0.5" />
    <circle cx="500" cy="30" r="1.3" fill="white" opacity="0.8" />
    <circle cx="600" cy="60" r="1.4" fill="white" opacity="0.7" />
    <circle cx="700" cy="40" r="1" fill="white" opacity="0.6" />
    <circle cx="150" cy="90" r="1.2" fill="white" opacity="0.7" />
    <circle cx="250" cy="30" r="1.1" fill="white" opacity="0.6" />
    <circle cx="350" cy="60" r="1.3" fill="white" opacity="0.8" />
    <circle cx="450" cy="40" r="1" fill="white" opacity="0.5" />
    <circle cx="550" cy="70" r="1.2" fill="white" opacity="0.7" />
    <circle cx="650" cy="30" r="1.1" fill="white" opacity="0.6" />
    <circle cx="750" cy="50" r="1.4" fill="white" opacity="0.8" />
  </g>
  
  <!-- Moon -->
  <circle cx="680" cy="100" r="40" fill="#ffffff" />
  <circle cx="665" cy="85" r="12" fill="#e0e0e0" />
  <circle cx="695" cy="120" r="8" fill="#e0e0e0" />
  <circle cx="705" cy="85" r="6" fill="#e0e0e0" />
  
  <!-- Far mountains -->
  <path d="M0,280 L100,220 L200,250 L300,200 L400,240 L500,180 L600,230 L700,190 L800,260 L800,500 L0,500 Z" fill="#34495e" />
  
  <!-- Mid mountains -->
  <path d="M0,320 L120,250 L240,300 L360,230 L480,280 L600,210 L720,290 L800,250 L800,500 L0,500 Z" fill="#2c3e50" />
  
  <!-- Near mountains -->
  <path d="M0,380 L150,300 L300,370 L450,280 L600,360 L750,290 L800,320 L800,500 L0,500 Z" fill="#1e272e" />
  
  <!-- Lake -->
  <path d="M0,420 C200,400 600,410 800,390 L800,500 L0,500 Z" fill="#3498db" opacity="0.6" />
  
  <!-- Lake reflection -->
  <path d="M0,420 C200,400 600,410 800,390 L800,420 L0,420 Z" fill="white" opacity="0.1" />
  
  <!-- Trees on nearest mountain -->
  <g>
    <!-- Tree 1 -->
    <polygon points="120,380 130,340 140,380" fill="#2ecc71" />
    <polygon points="120,360 130,320 140,360" fill="#27ae60" />
    <rect x="127" y="380" width="6" height="10" fill="#7f8c8d" />
    
    <!-- Tree 2 -->
    <polygon points="160,375 170,335 180,375" fill="#2ecc71" />
    <polygon points="160,355 170,315 180,355" fill="#27ae60" />
    <rect x="167" y="375" width="6" height="10" fill="#7f8c8d" />
    
    <!-- Tree 3 -->
    <polygon points="200,378 210,338 220,378" fill="#2ecc71" />
    <polygon points="200,358 210,318 220,358" fill="#27ae60" />
    <rect x="207" y="378" width="6" height="10" fill="#7f8c8d" />
    
    <!-- More trees -->
    <polygon points="480,362 490,322 500,362" fill="#2ecc71" />
    <polygon points="480,342 490,302 500,342" fill="#27ae60" />
    <rect x="487" y="362" width="6" height="10" fill="#7f8c8d" />
    
    <polygon points="520,368 530,328 540,368" fill="#2ecc71" />
    <polygon points="520,348 530,308 540,348" fill="#27ae60" />
    <rect x="527" y="368" width="6" height="10" fill="#7f8c8d" />
    
    <polygon points="560,365 570,325 580,365" fill="#2ecc71" />
    <polygon points="560,345 570,305 580,345" fill="#27ae60" />
    <rect x="567" y="365" width="6" height="10" fill="#7f8c8d" />
  </g>
</svg>
